<?xml version="1.0" standalone="no"?>
<!DOCTYPE svg PUBLIC "-//W3C//DTD SVG 20010904//EN"
 "http://www.w3.org/TR/2001/REC-SVG-20010904/DTD/svg10.dtd">
<svg version="1.0" xmlns="http://www.w3.org/2000/svg"
 width="960.000000pt" height="960.000000pt" viewBox="0 0 960.000000 960.000000"
 preserveAspectRatio="xMidYMid meet">
<metadata>
Created by potrace 1.11, written by Peter Selinger 2001-2013
</metadata>
<g transform="translate(0.000000,960.000000) scale(0.100000,-0.100000)"
fill="#000000" stroke="none">
<path d="M4635 9130 c-227 -19 -481 -73 -680 -146 -38 -14 -90 -31 -115 -38
-87 -25 -457 -222 -488 -260 -9 -12 -29 -29 -44 -39 -103 -65 -447 -383 -513
-472 -16 -22 -52 -68 -80 -102 -50 -61 -145 -204 -145 -219 0 -4 -7 -15 -16
-25 -26 -29 -115 -200 -168 -324 -10 -22 -21 -49 -26 -60 -18 -38 -72 -200
-80 -235 -4 -19 -14 -60 -23 -90 -8 -30 -29 -114 -46 -185 l-31 -130 0 -466 0
-466 -72 -11 c-161 -23 -204 -39 -326 -119 -70 -45 -177 -153 -224 -225 -32
-48 -79 -158 -107 -249 -8 -24 -11 -252 -11 -726 l0 -691 29 -31 c28 -29 33
-31 105 -31 63 0 79 3 96 20 27 27 40 63 40 110 0 27 7 45 22 60 26 24 27 24
53 4 18 -13 20 -30 25 -180 l5 -166 34 -30 c32 -29 37 -30 104 -26 63 3 72 7
98 36 l29 32 0 330 c0 317 1 331 20 350 25 25 35 25 60 0 19 -19 19 -42 19
-1162 0 -724 3 -1152 9 -1169 17 -43 74 -79 126 -79 39 0 51 5 86 38 38 37 40
41 40 101 0 95 39 140 74 86 13 -20 16 -55 16 -196 0 -139 3 -178 17 -206 39
-84 187 -84 226 0 15 31 17 80 17 411 0 377 3 417 36 430 8 3 23 -4 34 -16 19
-21 20 -35 20 -491 0 -454 1 -471 20 -502 22 -36 63 -55 116 -55 50 0 79 15
103 53 18 29 21 50 21 131 0 72 4 103 16 121 22 33 40 31 59 -5 12 -24 15 -81
15 -344 0 -198 4 -325 11 -343 18 -49 57 -72 120 -73 50 0 58 3 90 36 l34 35
5 198 c5 201 11 231 46 231 31 0 44 -43 44 -142 0 -96 0 -97 34 -132 31 -33
38 -36 92 -36 66 0 96 15 119 60 13 24 15 90 15 399 0 223 4 380 10 396 7 19
16 26 32 23 43 -6 48 -37 48 -295 0 -133 4 -253 10 -267 13 -35 59 -56 122
-56 90 0 128 47 128 158 0 63 23 101 55 88 29 -11 35 -58 35 -283 l0 -226 42
-39 c49 -45 96 -50 153 -17 65 39 65 36 65 578 0 505 0 511 41 511 41 0 44
-21 49 -327 l5 -295 38 -34 c20 -19 37 -36 37 -39 0 -2 -13 -11 -30 -20 -42
-22 -52 -68 -48 -209 l3 -118 40 -34 c51 -43 98 -45 155 -8 49 32 53 51 48
213 l-3 122 -34 28 -34 28 37 36 36 36 0 162 c0 164 11 233 37 243 24 10 50
-11 57 -45 3 -17 6 -264 6 -548 l0 -517 34 -37 c31 -34 38 -37 91 -37 53 0 60
3 90 36 18 19 36 49 39 66 3 17 6 173 6 347 1 326 4 351 41 351 29 0 43 -44
47 -145 4 -118 19 -158 63 -174 71 -25 162 -1 180 46 5 13 9 199 9 413 l0 388
50 4 50 3 0 -541 0 -541 25 -23 c34 -32 127 -40 174 -16 39 21 51 50 51 127 0
61 18 120 41 134 7 5 19 0 31 -15 16 -20 18 -44 18 -264 0 -211 3 -246 19
-281 27 -60 39 -66 122 -63 71 3 74 4 96 37 23 34 23 34 23 426 0 392 4 447
35 459 8 3 24 -3 37 -14 22 -18 23 -25 28 -214 l5 -195 35 -30 c51 -44 111
-43 164 2 38 33 39 34 46 126 6 72 12 95 27 106 15 11 21 12 38 1 19 -13 20
-27 25 -222 5 -216 12 -254 49 -273 11 -6 50 -11 86 -11 60 0 69 3 96 29 l29
29 0 461 c0 257 4 470 9 484 14 35 42 43 63 17 16 -20 18 -49 18 -286 0 -284
5 -315 51 -348 30 -20 120 -21 158 -1 16 8 32 25 37 37 4 13 10 139 13 280 4
177 10 261 18 269 6 6 37 17 69 23 93 19 86 -59 92 1066 3 816 6 979 18 1003
19 36 49 35 69 -3 13 -25 15 -94 15 -467 0 -397 2 -441 18 -473 9 -19 28 -40
42 -47 36 -18 131 -16 158 3 47 33 52 59 52 276 0 185 2 206 20 236 24 39 32
40 59 6 15 -19 21 -41 21 -79 0 -79 10 -113 42 -146 27 -26 36 -29 95 -29 62
0 67 2 99 36 l34 35 0 932 c0 873 -2 937 -19 1012 -25 106 -64 188 -137 285
-90 119 -203 203 -349 261 -31 13 -171 39 -205 39 l-30 0 0 388 c0 297 -3 415
-16 507 -35 267 -110 555 -184 713 -17 35 -30 65 -30 68 0 7 -90 186 -117 234
-123 213 -212 332 -393 523 -129 136 -231 228 -338 302 -40 28 -101 71 -135
96 -34 25 -100 66 -147 91 -47 25 -110 58 -140 75 -204 109 -489 197 -810 248
-113 19 -425 27 -565 15z m491 -505 c382 -54 768 -221 1074 -465 97 -77 283
-266 352 -355 231 -303 380 -654 444 -1045 14 -89 18 -203 21 -732 4 -468 8
-629 17 -637 6 -6 116 -11 261 -13 240 -3 252 -4 298 -27 64 -31 105 -74 135
-139 31 -69 31 -125 0 -193 -30 -66 -72 -109 -135 -140 -46 -23 -59 -24 -298
-27 -156 -2 -254 -7 -262 -14 -10 -8 -13 -169 -13 -780 l0 -770 -47 41 c-27
22 -154 142 -283 266 -226 216 -237 224 -275 225 l-40 0 -220 -262 c-121 -143
-287 -340 -368 -437 -81 -97 -151 -177 -155 -178 -4 -1 -71 80 -148 180 -302
388 -519 664 -561 715 -39 46 -49 52 -83 52 -38 0 -39 -1 -216 -227 -484 -619
-567 -723 -574 -718 -4 2 -74 85 -156 182 -82 98 -200 239 -264 314 -63 75
-161 191 -218 257 -147 176 -110 187 -458 -143 l-279 -264 -3 768 c-2 698 -4
770 -19 782 -12 11 -62 13 -240 11 -180 -3 -234 0 -278 12 -114 34 -199 138
-200 246 0 74 43 161 103 207 73 56 118 63 378 63 176 0 234 3 242 13 7 8 12
222 14 657 4 619 5 650 27 760 60 311 153 558 300 799 167 272 424 531 689
694 330 203 618 299 1027 341 69 7 306 -4 411 -19z"/>
<path d="M3040 7059 c-31 -13 -87 -66 -105 -100 -22 -42 -29 -122 -15 -180 12
-48 25 -65 148 -191 l136 -139 -126 -127 c-69 -70 -134 -143 -144 -162 -14
-25 -19 -55 -18 -110 1 -84 9 -105 70 -174 38 -42 45 -46 88 -46 36 0 52 -5
71 -25 25 -24 25 -26 25 -215 0 -107 4 -199 10 -210 5 -10 25 -28 44 -39 65
-40 220 -18 240 34 3 9 6 166 6 349 l0 332 33 32 33 32 37 -38 37 -38 0 -150
c0 -165 0 -164 64 -198 l30 -15 -26 -10 c-14 -5 -35 -22 -47 -37 -18 -23 -21
-40 -21 -135 0 -59 3 -115 6 -124 12 -30 79 -55 146 -55 51 0 70 5 101 25 l37
26 0 122 c0 136 -7 157 -63 181 -21 9 -26 15 -14 15 10 1 31 11 47 23 26 19
30 28 30 70 l0 48 59 0 c50 0 66 5 107 33 67 45 94 100 94 189 0 43 -6 81 -16
101 -9 18 -75 92 -147 165 l-132 132 132 133 c72 72 138 146 147 164 21 41 21
150 0 202 -14 36 -62 83 -111 109 -12 7 -57 12 -100 12 -101 0 -127 -16 -283
-174 l-114 -116 -136 134 c-74 74 -148 139 -163 145 -35 14 -163 13 -197 0z"/>
<path d="M5636 7047 c-22 -12 -53 -39 -70 -60 -29 -36 -31 -45 -34 -130 -3
-88 -2 -94 27 -137 16 -25 82 -96 145 -159 l116 -114 -132 -131 c-72 -72 -137
-145 -145 -163 -7 -18 -13 -68 -13 -111 0 -71 3 -83 29 -119 48 -66 86 -87
163 -91 123 -7 127 -5 283 149 l142 139 134 -131 c74 -72 148 -137 166 -145
18 -8 65 -14 107 -14 67 0 78 3 122 33 69 46 94 94 94 184 0 39 -5 84 -11 100
-6 15 -72 90 -147 166 l-136 137 136 138 c75 75 142 150 148 165 5 16 10 59
10 96 0 85 -28 144 -88 186 -36 25 -55 30 -117 33 -40 2 -89 -1 -108 -7 -24
-8 -81 -57 -171 -148 l-137 -136 -137 136 c-76 74 -150 140 -165 146 -16 6
-61 11 -100 11 -56 0 -81 -5 -111 -23z"/>
<path d="M4235 5712 c-70 -45 -105 -110 -105 -195 0 -88 53 -181 169 -298 105
-105 164 -143 286 -185 69 -24 100 -28 230 -32 159 -4 247 9 355 55 43 19 45
19 95 0 95 -37 143 -47 155 -32 11 13 8 79 -6 150 -10 47 -10 48 38 110 26 33
58 84 73 112 24 48 27 61 24 137 -4 76 -7 88 -35 123 -44 55 -85 73 -172 73
-44 0 -84 -6 -100 -14 -37 -20 -86 -73 -110 -122 -11 -22 -39 -57 -63 -78
-164 -149 -410 -109 -518 83 -20 35 -53 78 -74 95 -36 29 -46 31 -125 34 -72
2 -92 0 -117 -16z"/>
<path d="M1875 3541 c-11 -5 -29 -19 -40 -31 -19 -20 -20 -36 -20 -211 l0
-189 26 -26 c35 -35 127 -44 179 -17 55 28 60 48 60 240 l0 173 -29 32 c-26
29 -35 32 -92 35 -35 1 -73 -1 -84 -6z"/>
<path d="M1849 3012 c-34 -30 -34 -30 -34 -122 0 -88 1 -93 27 -115 52 -45
171 -41 214 6 15 16 20 40 22 104 4 80 3 84 -26 116 -27 31 -35 34 -99 37 -67
4 -72 3 -104 -26z"/>
<path d="M7652 2886 l-37 -34 -3 -214 c-4 -258 -1 -288 39 -328 27 -27 37 -30
93 -30 71 0 101 16 122 66 21 50 20 463 -1 504 -25 49 -61 70 -121 70 -48 0
-59 -4 -92 -34z"/>
<path d="M7669 2215 c-46 -25 -61 -74 -57 -187 l3 -100 37 -34 c34 -30 44 -34
94 -34 54 0 59 2 96 40 l38 41 0 103 0 102 -36 42 c-34 40 -38 42 -92 42 -31
-1 -69 -7 -83 -15z"/>
<path d="M2569 1604 l-34 -35 0 -221 0 -220 39 -34 c33 -28 47 -34 86 -34 39
0 53 6 86 34 l39 34 3 193 c2 107 0 209 -3 228 -4 19 -20 46 -38 62 -27 25
-40 29 -87 29 -51 0 -59 -3 -91 -36z"/>
<path d="M7114 1232 c-32 -26 -44 -75 -44 -184 0 -116 14 -183 43 -203 29 -20
145 -20 173 0 38 26 46 64 42 215 -3 141 -3 142 -31 166 -24 20 -39 24 -95 24
-48 0 -73 -5 -88 -18z"/>
<path d="M3629 1218 c-44 -37 -49 -61 -49 -234 0 -152 2 -170 21 -200 27 -44
47 -54 109 -54 63 0 82 9 109 55 19 33 21 51 21 196 0 139 -3 165 -20 198 -10
21 -26 41 -35 45 -29 11 -141 6 -156 -6z"/>
<path d="M6416 1129 l-26 -31 0 -198 c0 -109 4 -210 9 -223 11 -27 66 -57 106
-57 38 0 83 26 100 60 23 44 22 395 -1 430 -28 42 -45 50 -105 50 -52 0 -60
-3 -83 -31z"/>
<path d="M2574 1012 c-32 -27 -44 -67 -43 -145 1 -98 8 -117 54 -149 52 -36
98 -36 149 0 49 34 60 68 54 181 -4 77 -7 86 -32 108 -23 19 -38 23 -94 23
-49 0 -73 -5 -88 -18z"/>
<path d="M3642 696 c-79 -43 -87 -203 -13 -263 21 -18 131 -17 157 2 75 52 68
227 -11 263 -34 16 -104 15 -133 -2z"/>
<path d="M6091 688 c-62 -34 -87 -123 -56 -203 22 -58 47 -75 112 -75 104 0
133 33 133 149 0 63 -3 73 -29 102 -25 27 -38 33 -83 36 -31 2 -63 -1 -77 -9z"/>
<path d="M6409 558 c-28 -32 -29 -35 -29 -136 0 -116 11 -143 62 -161 71 -25
149 -6 173 41 22 44 21 205 -1 238 -29 43 -45 50 -111 50 -59 0 -66 -2 -94
-32z"/>
</g>
</svg>
